<?xml version="1.0" encoding="UTF-8"?>
<svg width="1200" height="675" viewBox="0 0 1200 675" xmlns="http://www.w3.org/2000/svg">
  <defs>
    <linearGradient id="bg" x1="0" y1="0" x2="1" y2="1">
      <stop offset="0%" stop-color="#0f1d35" />
      <stop offset="50%" stop-color="#1b2f54" />
      <stop offset="100%" stop-color="#274973" />
    </linearGradient>
    <radialGradient id="flare" cx="0.8" cy="0.22" r="0.62">
      <stop offset="0%" stop-color="#ffa273" stop-opacity="0.65" />
      <stop offset="100%" stop-color="#0f1d35" stop-opacity="0" />
    </radialGradient>
    <linearGradient id="accent" x1="0" y1="0" x2="1" y2="1">
      <stop offset="0%" stop-color="#ffb889" />
      <stop offset="100%" stop-color="#ff6f6f" />
    </linearGradient>
  </defs>
  <rect width="1200" height="675" rx="32" fill="url(#bg)" />
  <rect width="1200" height="675" fill="url(#flare)" />
  <g fill="none" stroke="#ffb889" stroke-width="10" stroke-linecap="round" opacity="0.32">
    <path d="M232 478c132-186 284-180 544-66 152 66 228 60 292-78" />
    <path d="M232 386c132-120 260-118 416-52 156 66 260 56 396-74" />
    <path d="M232 294c132-90 236-84 332-40 166 78 276 60 424-88" />
  </g>
  <g fill="url(#accent)" opacity="0.9">
    <circle cx="320" cy="468" r="28" />
    <circle cx="460" cy="420" r="36" />
    <circle cx="620" cy="456" r="44" />
    <circle cx="780" cy="408" r="36" />
    <circle cx="932" cy="340" r="28" />
  </g>
  <g fill="#f4f6ff" opacity="0.82">
    <path d="M300 220h164c12 0 18 6 18 18v70c0 12-6 18-18 18H300c-12 0-18-6-18-18v-70c0-12 6-18 18-18z" />
    <path d="M512 220h164c12 0 18 6 18 18v70c0 12-6 18-18 18H512c-12 0-18-6-18-18v-70c0-12 6-18 18-18z" />
    <path d="M724 220h164c12 0 18 6 18 18v70c0 12-6 18-18 18H724c-12 0-18-6-18-18v-70c0-12 6-18 18-18z" />
  </g>
  <g fill="#f4f6ff" opacity="0.6">
    <rect x="300" y="330" width="52" height="20" rx="8" />
    <rect x="512" y="330" width="52" height="20" rx="8" />
    <rect x="724" y="330" width="52" height="20" rx="8" />
  </g>
</svg>
