<?xml version="1.0" encoding="UTF-8"?>
<svg width="1200" height="675" viewBox="0 0 1200 675" xmlns="http://www.w3.org/2000/svg">
  <defs>
    <linearGradient id="bg" x1="0" y1="0" x2="1" y2="1">
      <stop offset="0%" stop-color="#0f2142" />
      <stop offset="50%" stop-color="#153562" />
      <stop offset="100%" stop-color="#2c6bb0" />
    </linearGradient>
    <radialGradient id="glow" cx="0.22" cy="0.22" r="0.7">
      <stop offset="0%" stop-color="#64d4ff" stop-opacity="0.6" />
      <stop offset="100%" stop-color="#0f2142" stop-opacity="0" />
    </radialGradient>
    <linearGradient id="accent" x1="0" y1="0" x2="1" y2="1">
      <stop offset="0%" stop-color="#5d8bfd" />
      <stop offset="100%" stop-color="#42c2ff" />
    </linearGradient>
  </defs>
  <rect width="1200" height="675" rx="32" fill="url(#bg)" />
  <rect width="1200" height="675" fill="url(#glow)" />
  <g fill="none" stroke="#8fb7ff" stroke-width="12" stroke-linecap="round" opacity="0.28">
    <path d="M244 204h240l66 66h176l66-66h174" />
    <path d="M244 292h184l70 70h182l70-70h180" />
    <path d="M244 380h128l74 74h188l66-66h186" />
  </g>
  <g fill="url(#accent)" opacity="0.94">
    <circle cx="944" cy="230" r="42" />
    <circle cx="944" cy="318" r="42" opacity="0.8" />
    <circle cx="944" cy="406" r="42" opacity="0.65" />
    <rect x="320" y="420" width="188" height="152" rx="28" />
    <rect x="548" y="420" width="188" height="152" rx="28" />
    <rect x="776" y="420" width="188" height="152" rx="28" />
  </g>
  <g fill="#f4f6ff" opacity="0.82">
    <path d="M344 252h136c12 0 18-6 18-18v-42c0-12-6-18-18-18H344c-12 0-18 6-18 18v42c0 12 6 18 18 18z" />
    <path d="M560 252h136c12 0 18-6 18-18v-42c0-12-6-18-18-18H560c-12 0-18 6-18 18v42c0 12 6 18 18 18z" />
    <path d="M776 252h136c12 0 18-6 18-18v-42c0-12-6-18-18-18H776c-12 0-18 6-18 18v42c0 12 6 18 18 18z" />
  </g>
  <g fill="#f4f6ff" opacity="0.7">
    <rect x="344" y="478" width="128" height="24" rx="12" />
    <rect x="572" y="478" width="128" height="24" rx="12" />
    <rect x="800" y="478" width="128" height="24" rx="12" />
    <rect x="344" y="516" width="104" height="20" rx="10" />
    <rect x="572" y="516" width="104" height="20" rx="10" />
    <rect x="800" y="516" width="104" height="20" rx="10" />
  </g>
</svg>
