<?xml version="1.0" encoding="UTF-8"?>
<svg width="1200" height="675" viewBox="0 0 1200 675" xmlns="http://www.w3.org/2000/svg">
  <defs>
    <linearGradient id="bg" x1="0" y1="0" x2="1" y2="1">
      <stop offset="0%" stop-color="#111c30" />
      <stop offset="100%" stop-color="#304980" />
    </linearGradient>
    <radialGradient id="nodeGlow" cx="0.18" cy="0.2" r="0.7">
      <stop offset="0%" stop-color="#6fd0ff" stop-opacity="0.7" />
      <stop offset="100%" stop-color="#0d1731" stop-opacity="0" />
    </radialGradient>
    <linearGradient id="mesh" x1="0" y1="0" x2="1" y2="1">
      <stop offset="0%" stop-color="#7c5dfd" />
      <stop offset="100%" stop-color="#4acbf9" />
    </linearGradient>
  </defs>
  <rect width="1200" height="675" rx="32" fill="url(#bg)" />
  <rect width="1200" height="675" fill="url(#nodeGlow)" />
  <g stroke="#4acbf9" stroke-opacity="0.22" stroke-width="8" fill="none">
    <circle cx="260" cy="212" r="88" />
    <circle cx="940" cy="230" r="68" />
    <path d="M260 212L420 320l140-108 162 110 180-82 138 80" stroke-linecap="round" stroke-linejoin="round" />
    <path d="M420 320l82 200 158-118 156 120" stroke-linecap="round" stroke-linejoin="round" />
  </g>
  <g fill="url(#mesh)" opacity="0.88">
    <path d="M344 460h160c14 0 20-6 20-20v-48c0-14-6-20-20-20H344c-14 0-20 6-20 20v48c0 14 6 20 20 20z" />
    <path d="M588 430h212c14 0 20 6 20 20v86c0 14-6 20-20 20H588c-14 0-20-6-20-20v-86c0-14 6-20 20-20z" />
    <path d="M870 454h104c14 0 20 6 20 20v62c0 14-6 20-20 20H870c-14 0-20-6-20-20v-62c0-14 6-20 20-20z" />
  </g>
  <g fill="#f4f6ff" opacity="0.8">
    <circle cx="260" cy="212" r="22" />
    <circle cx="420" cy="320" r="22" />
    <circle cx="560" cy="212" r="22" />
    <circle cx="722" cy="322" r="22" />
    <circle cx="902" cy="240" r="22" />
    <circle cx="1040" cy="320" r="22" />
    <circle cx="502" cy="520" r="16" />
    <circle cx="682" cy="520" r="16" />
    <circle cx="862" cy="520" r="16" />
  </g>
</svg>
