<?xml version="1.0" encoding="UTF-8"?>
<svg width="1200" height="675" viewBox="0 0 1200 675" xmlns="http://www.w3.org/2000/svg">
  <defs>
    <linearGradient id="bg" x1="0" y1="0" x2="1" y2="1">
      <stop offset="0%" stop-color="#10242f" />
      <stop offset="100%" stop-color="#1c4961" />
    </linearGradient>
    <radialGradient id="glow" cx="0.82" cy="0.22" r="0.65">
      <stop offset="0%" stop-color="#73e0ff" stop-opacity="0.65" />
      <stop offset="100%" stop-color="#10242f" stop-opacity="0" />
    </radialGradient>
    <linearGradient id="accent" x1="0" y1="0" x2="1" y2="1">
      <stop offset="0%" stop-color="#8fe1c0" />
      <stop offset="100%" stop-color="#3db7ff" />
    </linearGradient>
  </defs>
  <rect width="1200" height="675" rx="32" fill="url(#bg)" />
  <rect width="1200" height="675" fill="url(#glow)" />
  <g fill="none" stroke="#64d4ff" stroke-width="10" stroke-linecap="round" stroke-linejoin="round" opacity="0.32">
    <path d="M212 202h224l62 62h222l72-72h196" />
    <path d="M212 298h172l70 70h216l86-86h212" />
    <path d="M212 394h132l84 84h216l72-72h212" />
  </g>
  <g fill="url(#accent)" opacity="0.9">
    <rect x="320" y="404" width="168" height="120" rx="22" />
    <rect x="540" y="360" width="188" height="164" rx="24" />
    <rect x="776" y="316" width="188" height="208" rx="26" />
  </g>
  <g fill="#f4f6ff" opacity="0.82">
    <path d="M368 470h72c10 0 16-6 16-16v-24c0-10-6-16-16-16h-72c-10 0-16 6-16 16v24c0 10 6 16 16 16z" />
    <path d="M604 438h100c10 0 16-6 16-16v-18c0-10-6-16-16-16H604c-10 0-16 6-16 16v18c0 10 6 16 16 16z" />
    <path d="M604 510h132c10 0 16-6 16-16v-18c0-10-6-16-16-16H604c-10 0-16 6-16 16v18c0 10 6 16 16 16z" />
    <path d="M840 414h132c10 0 16-6 16-16v-18c0-10-6-16-16-16H840c-10 0-16 6-16 16v18c0 10 6 16 16 16z" />
    <path d="M840 486h132c10 0 16-6 16-16v-18c0-10-6-16-16-16H840c-10 0-16 6-16 16v18c0 10 6 16 16 16z" />
  </g>
  <g fill="#f4f6ff" opacity="0.5">
    <circle cx="212" cy="202" r="18" />
    <circle cx="436" cy="202" r="18" />
    <circle cx="498" cy="264" r="18" />
    <circle cx="720" cy="264" r="18" />
    <circle cx="792" cy="192" r="18" />
    <circle cx="988" cy="192" r="18" />
  </g>
</svg>
